<?xml version="1.0" encoding="utf-8"?>
<svg id="svg3032" width="16" height="16" xmlns="http://www.w3.org/2000/svg">
  <g id="layer1" transform="matrix(0.725021, 0, 0, 0.725021, -0.505743, -746.089111)">
    <path style="fill:#838383;fill-opacity:0;stroke:#999999;stroke-width:2.61278772000000000;stroke-miterlimit:4;stroke-opacity:1;stroke-dasharray:none" id="path4572" d="m 27.299999,16.049999 a 11.65,11.65 0 1 1 -23.299999,0 11.65,11.65 0 1 1 23.299999,0 z" transform="matrix(0.87987287,0,0,0.87987287,-1.7200104,1026.2902)"/>
    <path style="fill:#999999;overflow:visible" d="m 18.288405,1042.1054 0,3.1893 c 0,0.2657 -0.387305,0.5315 -0.77461,0.5315 l -0.774609,0 -9.295318,0 -0.77461,0 c -0.387305,0 -0.774609,-0.2658 -0.774609,-0.5315 l 0,-3.1893 c 0,-0.2658 0.387304,-0.5316 0.774609,-0.5316 l 0.77461,0 c 0.387305,0 0.7746097,0.2658 0.7746097,0.5316 l 0,2.1262 7.7460983,0 0,-2.1262 c 0,-0.2658 0.387305,-0.5316 0.77461,-0.5316 l 0.774609,0 c 0.387305,0 0.77461,0.2658 0.77461,0.5316 z" id="path2999"/>
    <path style="fill:#999999;overflow:visible" d="m 15.993919,1037.9872 -0.623647,-0.6236 c -0.35637,-0.3564 -0.890925,-0.3564 -1.247295,0 l -0.71274,0.7127 0,-3.7419 c 0,-0.4455 -0.35637,-0.8909 -0.890925,-0.8909 l -0.890925,0 c -0.445463,0 -0.890925,0.4454 -0.890925,0.8909 l 0,3.7419 -0.712741,-0.7127 c -0.3563703,-0.3564 -0.8909253,-0.3564 -1.2472953,0 l -0.623647,0.6236 c -0.3563705,0.3564 -0.3563705,0.8909 0,1.2473 l 3.2964233,3.2964 c 0.178185,0.1782 0.445462,0.2673 0.623647,0.2673 0.267278,0 0.445463,-0.089 0.623648,-0.2673 l 3.296422,-3.2964 c 0.356371,-0.2673 0.356371,-0.8909 0,-1.2473 z" id="path3199"/>
  </g>
  <rect transform="matrix(0.999983, 0, 0, 1.000017, -26.193059, -4.931325)" x="77.153" y="18.621" width="0.227" height="0.057" style="fill: rgb(216, 216, 216);"/>
</svg>